<svg width="291.21376953124997px" height="122.021240234375px" xmlns="http://www.w3.org/2000/svg" viewBox="104.39311523437502 13.9893798828125 291.21376953124997 122.021240234375" style="background: rgba(0, 0, 0, 0);" preserveAspectRatio="xMidYMid"><defs><filter id="editing-hole" x="-100%" y="-100%" width="300%" height="300%"><feFlood flood-color="#000000" result="black"></feFlood><feMorphology operator="dilate" radius="2" in="SourceGraphic" result="erode"></feMorphology><feGaussianBlur in="erode" stdDeviation="4" result="blur"></feGaussianBlur><feOffset in="blur" dx="2" dy="2" result="offset"></feOffset><feComposite operator="atop" in="offset" in2="black" result="merge"></feComposite><feComposite operator="in" in="merge" in2="SourceGraphic" result="inner-shadow"></feComposite></filter></defs><g filter="url(#editing-hole)"><g transform="translate(150.9253127872944, 97.39218711853027)"><path d="M26.11-42.69L26.11-42.69L26.11-42.69Q41.79-42.69 41.79-31.62L41.79-31.62L41.79-31.62Q41.79-25.54 37.89-21.89L37.89-21.89L37.89-21.89Q34.05-18.24 27.33-18.24L27.33-18.24L27.33-18.24Q24.19-18.24 21.76-20.03L21.76-20.03L21.76-20.03Q20.61-20.80 19.84-21.82L19.84-21.82L19.84-21.82Q24.51-21.82 26.98-24.67L26.98-24.67L26.98-24.67Q29.44-27.52 29.44-33.09L29.44-33.09L29.44-33.09Q29.44-38.66 23.94-38.66L23.94-38.66L22.40-38.66L22.40-38.66Q22.02-38.66 21.70-38.59L21.70-38.59L14.34 0L0.45 0L8.32-41.92L8.32-41.92Q15.17-42.56 19.14-42.62L19.14-42.62L19.14-42.62Q23.10-42.69 26.11-42.69ZM68.86-9.86L68.86-9.86L68.86-9.86Q70.08-8.32 70.08-5.34L70.08-5.34L70.08-5.34Q70.08-2.37 67.81-0.54L67.81-0.54L67.81-0.54Q65.54 1.28 61.57 1.28L61.57 1.28L61.57 1.28Q59.26 1.28 55.68 0.77L55.68 0.77L55.68 0.77Q48.64-0.32 46.62-0.32L46.62-0.32L46.62-0.32Q44.61-0.32 43.78-0.22L43.78-0.22L43.78-0.22Q42.94-0.13 41.60 0L41.60 0L49.34-42.24L63.36-42.24L56.96-7.04L56.96-7.04Q57.79-6.91 58.56-6.91L58.56-6.91L60.16-6.91L60.16-6.91Q65.54-6.91 68.86-9.86ZM75.26-9.47L75.26-9.47L75.26-9.47Q75.26-11.97 75.90-15.17L75.90-15.17L81.09-42.24L95.23-42.24L90.11-14.98L90.11-14.98Q89.54-11.97 89.54-9.76L89.54-9.76L89.54-9.76Q89.54-7.55 90.46-6.40L90.46-6.40L90.46-6.40Q91.39-5.25 93.12-5.25L93.12-5.25L93.12-5.25Q94.85-5.25 95.94-5.70L95.94-5.70L95.94-5.70Q97.02-6.14 97.92-7.23L97.92-7.23L97.92-7.23Q99.65-9.41 100.74-14.98L100.74-14.98L105.92-42.24L115.58-42.24L110.46-15.04L110.46-15.04Q108.67-5.95 103.74-2.30L103.74-2.30L103.74-2.30Q98.94 1.28 89.47 1.28L89.47 1.28L89.47 1.28Q82.37 1.28 78.59-1.79L78.59-1.79L78.59-1.79Q75.26-4.48 75.26-9.47ZM141.82-29.57L141.82-29.57L141.82-29.57Q142.78-31.49 142.78-33.28L142.78-33.28L142.78-33.28Q142.78-35.07 142.59-36.06L142.59-36.06L142.59-36.06Q142.40-37.06 141.95-37.82L141.95-37.82L141.95-37.82Q140.99-39.49 139.07-39.49L139.07-39.49L139.07-39.49Q136.70-39.49 134.78-37.76L134.78-37.76L134.78-37.76Q132.74-35.97 132.74-33.15L132.74-33.15L132.74-33.15Q132.74-31.36 133.98-29.98L133.98-29.98L133.98-29.98Q135.23-28.61 137.15-27.33L137.15-27.33L137.15-27.33Q139.07-26.05 141.25-24.77L141.25-24.77L141.25-24.77Q143.42-23.49 145.34-21.95L145.34-21.95L145.34-21.95Q149.76-18.43 149.76-13.70L149.76-13.70L149.76-13.70Q149.76-10.50 148.06-7.78L148.06-7.78L148.06-7.78Q146.37-5.06 143.55-3.07L143.55-3.07L143.55-3.07Q137.41 1.28 129.28 1.28L129.28 1.28L129.28 1.28Q122.69 1.28 119.30-0.86L119.30-0.86L119.30-0.86Q115.90-3.01 115.90-6.27L115.90-6.27L115.90-6.27Q115.90-12.10 120.45-13.57L120.45-13.57L120.45-13.57Q121.73-14.02 123.68-14.02L123.68-14.02L123.68-14.02Q125.63-14.02 127.87-13.18L127.87-13.18L127.87-13.18Q126.85-10.56 126.85-8.19L126.85-8.19L126.85-8.19Q126.85-3.07 130.50-3.07L130.50-3.07L130.50-3.07Q132.86-3.07 134.82-4.80L134.82-4.80L134.82-4.80Q136.77-6.53 136.77-8.48L136.77-8.48L136.77-8.48Q136.77-10.43 135.52-11.84L135.52-11.84L135.52-11.84Q134.27-13.25 132.42-14.37L132.42-14.37L132.42-14.37Q130.56-15.49 128.42-16.58L128.42-16.58L128.42-16.58Q126.27-17.66 124.42-19.20L124.42-19.20L124.42-19.20Q120.06-22.72 120.06-28.35L120.06-28.35L120.06-28.35Q120.06-32 121.86-34.85L121.86-34.85L121.86-34.85Q123.65-37.70 126.53-39.62L126.53-39.62L126.53-39.62Q132.29-43.52 139.36-43.52L139.36-43.52L139.36-43.52Q146.43-43.52 149.86-41.41L149.86-41.41L149.86-41.41Q153.28-39.30 153.28-35.71L153.28-35.71L153.28-35.71Q153.28-32.58 150.85-30.59L150.85-30.59L150.85-30.59Q148.74-28.93 146.18-28.93L146.18-28.93L146.18-28.93Q143.62-28.93 141.82-29.57ZM178.50-4.80L178.50-4.80L178.50-4.80Q178.50-9.28 180.29-18.24L180.29-18.24L170.82-18.24L167.30 0L153.92 0L162.05-42.24L175.55-42.24L171.84-23.36L181.31-23.36L184.83-42.24L198.34-42.24L198.34-42.24Q197.44-37.50 196.29-32.19L196.29-32.19L194.11-21.76L194.11-21.76Q191.68-9.60 191.68-4.29L191.68-4.29L191.68-4.29Q191.68-2.11 192.38-0.90L192.38-0.90L192.38-0.90Q189.18 1.28 185.44 1.28L185.44 1.28L185.44 1.28Q181.70 1.28 180.10-0.51L180.10-0.51L180.10-0.51Q178.50-2.30 178.50-4.80Z" fill="#ccc"></path></g></g><style>text {
  font-size: 32px;
  font-family: Arial Black;
  dominant-baseline: central;
  text-anchor: middle;
}</style></svg>